<?xml version="1.0" standalone="no"?>
<!DOCTYPE svg PUBLIC "-//W3C//DTD SVG 20010904//EN"
 "http://www.w3.org/TR/2001/REC-SVG-20010904/DTD/svg10.dtd">
<svg version="1.0" xmlns="http://www.w3.org/2000/svg"
 width="500.000000pt" height="500.000000pt" viewBox="0 0 500.000000 500.000000"
 preserveAspectRatio="xMidYMid meet">
<metadata>
Created by potrace 1.14, written by Peter Selinger 2001-2017
</metadata>
<g transform="translate(0.000000,500.000000) scale(0.100000,-0.100000)"
fill="#000000" stroke="none">
<path d="M146 4985 c-49 -17 -103 -68 -127 -120 -18 -39 -19 -121 -19 -2363 0
-2076 2 -2327 16 -2360 19 -46 68 -98 116 -123 36 -19 92 -19 2368 -19 2276 0
2332 0 2368 19 48 25 97 77 116 123 14 33 16 284 16 2360 0 2226 -1 2325 -19
2363 -23 51 -89 111 -138 124 -26 8 -749 11 -2348 11 -1939 -1 -2316 -3 -2349
-15z m2634 -584 c156 -37 157 -39 8 -40 -203 -1 -369 -37 -533 -116 -419 -200
-686 -616 -687 -1066 0 -428 174 -739 517 -921 83 -44 80 -47 -12 -13 -333
126 -592 414 -690 770 -26 93 -28 114 -28 290 0 177 2 197 27 288 121 431 479
749 926 822 119 20 357 12 472 -14z m110 -161 c375 -37 717 -281 857 -613 26
-62 83 -242 83 -264 0 -2 -98 -3 -218 -3 l-219 0 -31 83 c-34 89 -104 202
-173 281 -109 123 -289 232 -459 277 -120 32 -338 32 -455 1 -86 -24 -222 -85
-289 -130 -70 -48 -72 -47 -31 3 95 116 266 237 418 295 173 67 330 88 517 70z
m-1601 -584 c-69 -158 -99 -442 -65 -617 73 -367 285 -654 604 -818 174 -89
315 -121 526 -121 260 1 454 64 669 218 77 55 189 165 235 230 l23 32 -185 0
-186 0 0 170 0 170 470 0 470 0 0 -500 0 -500 -160 0 -160 0 0 135 c0 74 -3
135 -6 135 -4 0 -46 -37 -93 -83 -374 -361 -944 -473 -1426 -280 -425 170
-731 535 -826 986 -17 79 -22 139 -23 262 -1 170 9 242 51 385 25 87 93 254
99 247 3 -2 -5 -25 -17 -51z m-58 -2500 c80 -38 169 -141 169 -196 0 -6 -38
-10 -100 -10 -87 0 -101 2 -109 19 -24 44 -140 66 -208 40 -70 -26 -112 -100
-113 -197 0 -138 70 -212 201 -212 72 0 122 24 157 74 12 18 22 35 22 39 0 3
-51 8 -112 9 l-113 3 0 65 0 65 198 3 197 2 0 -88 c0 -108 -25 -166 -101 -237
-59 -56 -119 -84 -203 -96 -172 -24 -328 58 -399 209 -28 61 -31 76 -31 162 0
114 24 184 85 254 81 92 171 127 309 123 78 -3 105 -9 151 -31z m1149 -51 l0
-75 60 0 60 0 0 -75 0 -75 -60 0 -60 0 0 -127 c0 -71 4 -134 9 -142 5 -7 32
-16 60 -19 l51 -5 0 -73 0 -74 -67 0 c-88 0 -135 14 -178 51 -46 41 -55 79
-55 247 l0 142 -35 0 -35 0 0 75 0 75 35 0 35 0 0 75 0 75 90 0 90 0 0 -75z
m1818 -2 l3 -73 59 0 60 0 0 -75 0 -75 -60 0 -60 0 0 -135 0 -135 26 -10 c14
-6 41 -10 60 -10 l34 0 0 -76 0 -76 -87 4 c-110 4 -157 26 -190 88 -21 40 -23
56 -23 197 l0 153 -40 0 -40 0 0 75 0 75 40 0 40 0 0 75 0 76 88 -3 87 -3 3
-72z m-2320 -78 c118 -35 192 -135 195 -261 l2 -69 -202 -3 c-222 -3 -219 -2
-188 -61 29 -57 130 -67 170 -16 20 24 26 25 114 25 l93 0 -6 -26 c-11 -41
-54 -100 -96 -129 -153 -106 -379 -48 -450 117 -33 77 -32 196 3 269 31 64 40
76 90 114 70 52 180 68 275 40z m1127 -14 c112 -49 169 -143 170 -276 0 -126
-54 -219 -158 -269 -138 -68 -313 -30 -397 85 -73 102 -70 276 6 376 79 103
250 141 379 84z m445 -155 c0 -183 5 -211 41 -245 28 -26 104 -29 138 -5 43
31 51 70 51 254 l0 170 90 0 90 0 0 -295 0 -295 -90 0 -90 0 0 36 0 35 -35
-26 c-94 -72 -237 -65 -311 17 -55 60 -59 78 -62 311 l-3 217 90 0 91 0 0
-174z"/>
<path d="M1721 876 c-24 -13 -50 -51 -51 -73 0 -10 28 -13 110 -13 105 0 110
1 110 21 0 11 -13 34 -29 50 -24 23 -38 29 -73 29 -24 -1 -54 -7 -67 -14z"/>
<path d="M2805 858 c-98 -77 -54 -268 62 -268 77 0 123 57 123 152 0 58 -22
102 -62 124 -36 21 -92 17 -123 -8z"/>
</g>
</svg>
